<svg xmlns="http://www.w3.org/2000/svg" viewBox="0 0 362.2 247.5"><path d="M258.2 205.1c7.6 4.9 17.1 5.6 25.5 1.8 1.6-.7 2.4-.5 4.3.3 3.5 1.6 7.2 2.3 10.8 2.3 8 0 15.7-3.8 21-10.7 7.4-9.7 7.3-23.3-.1-33-7.5-9.9-20.6-13.3-31.9-8.2-1.7.8-2.7.8-4.3 0-8.2-3.7-17.6-2.9-25.2 2-7.7 5-12.3 13.5-12.3 22.7 0 9.3 4.5 17.8 12.2 22.8zm15.1-8.3h-.3c-6.1 0-11.3-3.5-13.4-9.3-2.1-5.5-.7-11.8 3.5-15.7 4.6-4.4 10.9-5.3 16-2.4 4.6 2.6 8.3 2.6 12.9 0 5.8-3.3 13.2-1.6 17.5 4 4.2 5.5 4.1 12.9-.2 18.2-4.5 5.5-11.9 6.9-17.6 3.5-1.8-1.1-3.9-2.1-6.2-2.1-1.8 0-3.8.6-5.9 2.2-1.8 1.2-4 1.8-6.3 1.6zM128.8 101h71.5c2.5 0 5-.2 6.7-1.9 1.1-1.1 1.6-2.6 1.6-4.5-.1-6-6-6-8.2-6-8.6.1-17.3 0-25.8 0h-45.8c-2.2 0-4.8 0-6.5 1.7-1.1 1.1-1.6 2.6-1.5 4.6.1 6.1 5.2 6.1 8 6.1zm-80.4 0h40.5c2.3 0 4.1-.6 5.3-1.8 1.1-1.1 1.6-2.6 1.6-4.4 0-1.8-.5-3.3-1.6-4.3-1.2-1.2-3-1.8-5.5-1.8H48.2c-2.3-.1-4.1.5-5.3 1.7-1.1 1.1-1.7 2.6-1.7 4.4 0 1.8.5 3.3 1.6 4.4 1.5 1.2 3.3 1.8 5.6 1.8z" fill="#252525"></path><path d="M334 0H29.8C16.5 0 5.4 9.2 2.4 21.6l-2.5-2.2v208.8l2.5-2.2c3 12.3 14.2 21.5 27.4 21.5H334c15.6 0 28.2-12.7 28.2-28.2V28.2C362.2 12.7 349.6 0 334 0zm17.2 58v161.3c0 9.5-7.7 17.2-17.2 17.2H29.8c-9.5 0-17.2-7.7-17.2-17.2V58h338.6zM29.8 11H334c9.5 0 17.2 7.7 17.2 17.2V47H12.6V28.2c0-9.5 7.7-17.2 17.2-17.2z" fill="#252525"></path></svg>