<svg xmlns="http://www.w3.org/2000/svg" viewBox="0 0 20 20"><path d="M19.5 9.93a8.89 8.89 0 01-2.81 6.72 9.38 9.38 0 01-13.25.17l-.09-.09A9.08 9.08 0 01.5 10a9.28 9.28 0 012.77-6.73 9.46 9.46 0 0113.34 0 8.79 8.79 0 012.89 6.66zm-.9-.08a8 8 0 00-2.59-6 8 8 0 00-6-2.44l-.9 1.91 1.05.23.84-.89 1.42.08.3.77-1 .91V5l.53.07.22-.38.9-.61v.38l.37.61-.37.46.22.23H13l.23.54-1.35.61.23.76h-.45l-.15-.76h-1l-.15.3L10 7l-.68.69.53.61V9l.52.38 3.22.38 1.05.77-.15 1.83-2.17 2.22a2.82 2.82 0 00-.45 1.22 5.7 5.7 0 00-.15 1.3l-.3.38c-.22-.53-.6-1.3-1-2.44-.07-.38-.15-.84-.22-1.46-.08-.45-.08-.91-.15-1.45L8.44 11l1.2-1.46-.52-.76a4.36 4.36 0 01-1.5-.46 5.82 5.82 0 01-1.2-1.07l.45 1-.3.16-.75-1.47L6 5.57l-.22-.92L5 4l-.53-.15-.47.27-.52.15A8.56 8.56 0 001.4 10 8.21 8.21 0 004 16.12a8.65 8.65 0 0014.6-6.27z" fill="#252525"></path></svg>