<?xml version="1.0" encoding="UTF-8"?>
<svg width="19px" height="17px" viewBox="0 0 19 17" version="1.1" xmlns="http://www.w3.org/2000/svg" xmlns:xlink="http://www.w3.org/1999/xlink">
    <!-- Generator: Sketch 55.2 (78181) - https://sketchapp.com -->
    <title>Group 5</title>
    <desc>Created with Sketch.</desc>
    <g id="PLP" stroke="none" stroke-width="1" fill="none" fill-rule="evenodd">
        <g transform="translate(-152.000000, -177.000000)" id="Group-5">
            <g transform="translate(153.000000, 178.000000)">
                <g id="Group-3">
                    <g id="Group-2" transform="translate(3.000000, 2.000000)">
                        <path d="M5.35714286,7.7225 L5.35714286,13.5 C5.35714286,13.6735 5.45357143,13.834 5.61160714,13.9255 C5.69732143,13.975 5.79482143,14 5.89285714,14 C5.97482143,14 6.05678571,13.9825 6.13232143,13.9475 L9.34660714,12.4475 C9.52821429,12.3625 9.64285714,12.1895 9.64285714,12 L9.64285714,7.7225 L14.8226786,3.3715 C14.9357143,3.277 15,3.142 15,3 L15,0.5 C15,0.224 14.7605357,0 14.4642857,0 L0.535714286,0 C0.239464286,0 0,0.224 0,0.5 L0,3 C0,3.142 0.0642857143,3.277 0.177321429,3.3715 L5.35714286,7.7225 Z M0.9375,0.933333333 L14.0625,0.933333333 L14.0625,2.63618168 L8.77476563,6.80444787 C8.659375,6.89497904 8.59375,7.0243093 8.59375,7.16034556 L8.59375,11.1753315 L6.40625,12.1333333 L6.40625,7.16034556 C6.40625,7.0243093 6.340625,6.89497904 6.22523438,6.80444787 L0.9375,2.63618168 L0.9375,0.933333333 Z" id="Shape-Copy-2" fill="#000000" fill-rule="nonzero"></path>
                        <path d="M14,1 L1,1" id="Path-2-Copy-2" stroke="#000000" stroke-width="0.5"></path>
                    </g>
                    <circle id="Oval-Copy-13" stroke="#FFFFFF" fill="#000000" cx="3.5" cy="3.5" r="3.5"></circle>
                </g>
                <circle id="Oval-2-Copy" fill="#FFFFFF" cx="3.5" cy="3.5" r="1.5"></circle>
            </g>
        </g>
    </g>
</svg>