<?xml version="1.0"?>
<svg xmlns="http://www.w3.org/2000/svg" viewBox="0 0 64 64" width="512" height="512"><g id="money_&#xB7;_ecommerce_&#xB7;_buy_&#xB7;_bag_&#xB7;_shopping" data-name="money &#xB7; ecommerce  &#xB7; buy &#xB7; bag &#xB7; shopping"><path d="M61,14H56V13A10.987,10.987,0,0,0,40,3.21,10.987,10.987,0,0,0,24,13v1H15a1,1,0,0,0-1,1V34.05c-.33-.03-.66-.05-1-.05A10.989,10.989,0,0,0,6.7,54H5a3.009,3.009,0,0,0-3,3v2a3.009,3.009,0,0,0,3,3H23a3.01,3.01,0,0,0,2.82-2H43a3.009,3.009,0,0,0,3-3V56h9a7.008,7.008,0,0,0,7-7V15A1,1,0,0,0,61,14ZM45,4a9.014,9.014,0,0,1,9,9v1H46V13a10.988,10.988,0,0,0-4-8.48A9.048,9.048,0,0,1,45,4Zm0,19a1,1,0,0,0,1-1V20.28a2,2,0,1,1-2,0V22A1,1,0,0,0,45,23ZM40,5.52A9.01,9.01,0,0,1,44,13v1H36V13A9.01,9.01,0,0,1,40,5.52ZM26,13A8.987,8.987,0,0,1,38,4.52,10.988,10.988,0,0,0,34,13v1H26ZM25,23a1,1,0,0,0,1-1V20.28a2,2,0,1,1-2,0V22A1,1,0,0,0,25,23ZM4,45a9,9,0,1,1,9,9A9.014,9.014,0,0,1,4,45ZM24,59a1,1,0,0,1-1,1H5a1,1,0,0,1-1-1V57a1,1,0,0,1,1-1H23a1,1,0,0,1,1,1Zm-1.82-5H19.3a10.97,10.97,0,0,0,4.27-6h.61A3,3,0,0,0,24,49v2a3.02,3.02,0,0,0,.22,1.12A2.981,2.981,0,0,0,22.18,54ZM41,42a1,1,0,0,1,1,1v2a1,1,0,0,1-1,1H23.95c.03-.33.05-.66.05-1a10.665,10.665,0,0,0-.43-3ZM26,39V37a1,1,0,0,1,1-1H45a1,1,0,0,1,1,1v2a1,1,0,0,1-1,1H27A1,1,0,0,1,26,39ZM44,57a1,1,0,0,1-1,1H26V57a3,3,0,0,0-1.71-2.7A1,1,0,0,1,25,54H43a1,1,0,0,1,1,1Zm1-5H27a1,1,0,0,1-1-1V49a1,1,0,0,1,1-1H45a1,1,0,0,1,1,1v2A1,1,0,0,1,45,52Zm4,2H45.82a.564.564,0,0,1-.04-.12A2.994,2.994,0,0,0,48,51V49a3.009,3.009,0,0,0-3-3H43.82A3,3,0,0,0,44,45V43a3,3,0,0,0-.18-1H45a3.009,3.009,0,0,0,3-3V37a3.009,3.009,0,0,0-3-3H27a3.009,3.009,0,0,0-3,3v2a3,3,0,0,0,.18,1H22.79A11.026,11.026,0,0,0,16,34.43V16h8v2.14a4,4,0,1,0,2,0V16H44v2.14a4,4,0,1,0,2,0V16h8V49A5,5,0,0,1,49,54Zm11-5a5,5,0,0,1-5,5H53.89A6.97,6.97,0,0,0,56,49V16h4Z"/><path d="M12,42h2a1,1,0,0,1,1,1,1,1,0,0,0,2,0,3,3,0,0,0-3-3V39a1,1,0,0,0-2,0v1a3,3,0,0,0,0,6h2a1,1,0,0,1,0,2H12a1,1,0,0,1-1-1,1,1,0,0,0-2,0,3,3,0,0,0,3,3v1a1,1,0,0,0,2,0V50a3,3,0,0,0,0-6H12a1,1,0,0,1,0-2Z"/></g></svg>
