<svg xmlns="http://www.w3.org/2000/svg" viewBox="0 0 70.3 81.8"><path d="M70.3 19.4v-.1c0-.1-.1-.2-.1-.4v-.1l-.3-.3s-.1 0-.1-.1l-.1-.1-17.9-9.6c-.2-.2-.4-.3-.6-.3L35.8.1c-.4-.2-.8-.2-1.2 0L.7 18.4l-.1.1s-.1 0-.1.1l-.3.3v.1c-.1 0-.2.1-.2.3v43.1c0 .5.3.9.7 1.1l33.9 18.2h.2c.1.1.3.1.4.1.1 0 .3 0 .4-.1h.2l33.9-18.2c.4-.2.7-.6.7-1.1l-.1-43zM35.2 36.2l-15.6-8.4L50.9 11l15.6 8.4-31.3 16.8zm0-33.5l13.1 7-31.4 16.8-13.1-7L35.2 2.7zM2.5 21.5l31.4 16.9v40L2.5 61.6V21.5zm33.9 56.9v-40l31.4-16.9v40L36.4 78.4z" fill="#252525"></path><path d="M17.6 35.5L7.4 30c-.4-.2-.9-.2-1.2 0-.4.2-.6.6-.6 1.1v7.4c0 .5.3.9.7 1.1l10.2 5.5c.2.1.4.2.6.2.2 0 .4-.1.6-.2.4-.2.6-.6.6-1.1v-7.4c0-.5-.3-.9-.7-1.1zm-1.8 6.4l-7.7-4.1v-4.5l7.7 4.1v4.5zm-2 12.4l-6.4-3.2c-.6-.3-1.4-.1-1.7.5-.3.6-.1 1.4.5 1.7l6.4 3.2c.2.1.4.1.6.1.5 0 .9-.2 1.1-.7.3-.5.1-1.2-.5-1.6zm0 4l-6.4-3.2c-.6-.3-1.4-.1-1.7.5-.3.6-.1 1.4.5 1.7l6.4 3.2c.2.1.4.1.6.1.5 0 .9-.2 1.1-.7.3-.5.1-1.2-.5-1.6z" fill="#252525"></path></svg>