<svg xmlns="http://www.w3.org/2000/svg" viewBox="0 0 44.7 42.5"><path d="M44.7 16.1c-.1-.3-.3-.5-.6-.5l-14.6-2.1L23.1.4c-.1-.3-.4-.4-.7-.4-.3 0-.6.2-.7.4l-6.5 13.1L.7 15.6c-.3 0-.6.3-.6.5s0 .6.2.8l10.5 10.2-2.6 14.5c-.1.3.1.6.3.8.2 0 .4.1.5.1s.3 0 .4-.1l12.9-6.8 12.9 6.8c.3.1.6.1.8-.1.2-.2.4-.5.3-.8L34 27.2 44.5 17c.2-.3.3-.6.2-.9zM32.6 26.3c-.2.2-.3.4-.2.7l2.3 13.2L22.8 34c-.2-.1-.5-.1-.7 0l-11.9 6.2L12.5 27c0-.3 0-.5-.2-.7l-9.6-9.4L16 15c.3 0 .5-.2.6-.4l5.9-12 5.9 12c.1.2.3.4.6.4l13.3 1.9-9.7 9.4z" fill="#252525"></path></svg>